<?xml version="1.0" encoding="utf-8"?>
<!-- Generator: Adobe Illustrator 16.0.4, SVG Export Plug-In . SVG Version: 6.00 Build 0)  -->
<!DOCTYPE svg PUBLIC "-//W3C//DTD SVG 1.1//EN" "http://www.w3.org/Graphics/SVG/1.1/DTD/svg11.dtd">
<svg version="1.1" id="Layer_1" xmlns="http://www.w3.org/2000/svg" xmlns:xlink="http://www.w3.org/1999/xlink" x="0px" y="0px"
	 width="26px" height="26.021px" viewBox="12 11.999 26 26.021" xml:space="preserve">
<path d="M36.564,12H13.435C12.643,12,12,12.642,12,13.435v23.129C12,37.357,12.643,38,13.435,38h12.452V27.932h-3.388v-3.925h3.388
	v-2.894c0-3.358,2.051-5.187,5.047-5.187c1.437,0,2.668,0.107,3.027,0.154v3.51l-2.078,0.001c-1.629,0-1.943,0.774-1.943,1.91v2.505
	h3.887l-0.508,3.924h-3.379v10.069h6.625c0.793,0,1.437-0.644,1.437-1.435v-23.13C38,12.642,37.357,12,36.564,12z"/>
</svg>
